Coordinates
version=1
nRows=14
nColumns=40
inDegrees=yes

Units are S.I. units (second, meters, Newtons, ...)
Angles are in degrees.

endheader
time	pelvis_tilt	pelvis_list	pelvis_rotation	pelvis_tx	pelvis_ty	pelvis_tz	hip_flexion_r	hip_adduction_r	hip_rotation_r	knee_angle_r	knee_angle_r_beta	ankle_angle_r	subtalar_angle_r	mtp_angle_r	hip_flexion_l	hip_adduction_l	hip_rotation_l	knee_angle_l	knee_angle_l_beta	ankle_angle_l	subtalar_angle_l	mtp_angle_l	lumbar_extension	lumbar_bending	lumbar_rotation	arm_flex_r	arm_add_r	arm_rot_r	elbow_flex_r	pro_sup_r	wrist_flex_r	wrist_dev_r	arm_flex_l	arm_add_l	arm_rot_l	elbow_flex_l	pro_sup_l	wrist_flex_l	wrist_dev_l
     26.69000000	     -2.08760661	     -1.49331027	      5.70480144	      0.78184334	      0.90651177	      0.29946245	     19.82389923	    -10.50877016	     -0.76067876	     57.14482668	     57.14482668	      6.46477490	    -18.13840592	     -6.22771324	     21.42207731	      1.41541871	     -2.96377407	     36.55558026	     36.55558026	     21.14638864	    -18.65237903	     12.20641004	    -11.19776364	      8.77430836	      4.38554884	     22.69998677	    -15.57787010	    -14.19322544	     37.52519651	     45.40992289	      0.00000000	      0.00000000	     26.48254544	    -17.30183276	     13.11300837	     43.85453779	     45.92564502	      0.00000000	      0.00000000
     26.71021429	     -2.23149504	     -1.73575617	      4.76717102	      0.78024960	      0.90602794	      0.29890987	     21.55375756	    -10.33424977	     -0.27830940	     59.27475668	     59.27475668	      4.85656574	    -18.26272756	     -5.94321178	     21.49004293	      1.03077624	     -3.48280094	     36.82998430	     36.82998430	     21.56013390	    -18.82973699	     12.53499788	    -11.17569163	      8.92460143	      4.03284756	     19.12368601	    -14.99700714	    -14.18113751	     35.97146805	     45.45325829	      0.00000000	      0.00000000	     28.51872717	    -18.17696120	     12.31774543	     44.98490243	     46.04250167	      0.00000000	      0.00000000
     26.73042857	     -2.21770826	     -2.01925273	      3.74983181	      0.77870038	      0.90604152	      0.29855100	     23.00621167	     -9.95797782	      0.35450980	     61.15647345	     61.15647345	      3.60111152	    -18.27992236	     -4.88977636	     21.30298432	      0.54115294	     -4.10922425	     37.00097450	     37.00097450	     22.10232576	    -18.91048905	     13.19443649	    -11.47683939	      9.10992251	      4.09817760	     15.23902797	    -14.68305915	    -14.29386697	     34.47360738	     45.50524140	      0.00000000	      0.00000000	     30.60645309	    -18.79418304	     10.80155730	     46.94213715	     46.24321768	      0.00000000	      0.00000000
     26.75064286	     -2.29248131	     -2.29016886	      2.69266082	      0.77703578	      0.90620626	      0.29841282	     24.43756349	     -9.50793162	      1.07784322	     62.71756343	     62.71756343	      2.59647121	    -18.19311325	     -3.75973963	     21.12961803	      0.03747832	     -4.82382282	     37.03095319	     37.03095319	     22.52276237	    -18.96931856	     13.66884323	    -11.74063488	      9.29102389	      3.98460373	     11.52786764	    -14.28363979	    -14.40839125	     33.08548829	     45.55172033	      0.00000000	      0.00000000	     32.56342439	    -19.59870134	      9.13590963	     48.71655831	     46.44744968	      0.00000000	      0.00000000
     26.77085714	     -2.28660496	     -2.61303600	      1.65674086	      0.77539930	      0.90684008	      0.29855865	     25.62646860	     -8.88800134	      1.83312014	     63.92828313	     63.92828313	      2.61032132	    -17.65851526	     -0.69295526	     20.82153941	     -0.51646683	     -5.46912087	     37.00134498	     37.00134498	     23.08079352	    -18.99798666	     14.64324685	    -12.11992679	      9.53719389	      3.38585616	      8.15199894	    -13.68063526	    -14.85390583	     32.29511471	     45.62827238	      0.00000000	      0.00000000	     33.73463163	    -20.13250342	      4.34086360	     51.32312739	     46.94716523	      0.00000000	      0.00000000
     26.79107143	     -2.36158056	     -2.99481409	      0.65726098	      0.77370860	      0.90786104	      0.29896412	     26.54163359	     -8.30169525	      2.37118813	     64.31158596	     64.31158596	      2.22046771	    -17.07206512	     -0.74066916	     20.44812088	     -1.14035800	     -6.11951973	     36.66054465	     36.66054465	     23.18755474	    -19.03446817	     14.76164543	    -12.31925246	      9.88733721	      2.63731888	      5.17714216	    -13.24524555	    -14.87534683	     31.11533975	     45.65643830	      0.00000000	      0.00000000	     35.47201159	    -21.71702721	      3.65468585	     51.92656999	     47.03020790	      0.00000000	      0.00000000
     26.81128571	     -2.53606385	     -3.22296311	     -0.47489680	      0.77200129	      0.90904330	      0.29976900	     27.44848559	     -7.79173040	      3.08812806	     64.19302278	     64.19302278	      2.52954288	    -16.14670809	     -0.33079756	     20.07993598	     -1.67204594	     -7.04373719	     36.18344410	     36.18344410	     23.20813294	    -19.03483090	     14.71136732	    -12.53161761	      9.92162158	      2.87067867	      1.74292875	    -13.12479939	    -14.88279085	     29.68136653	     45.73121882	      0.00000000	      0.00000000	     36.88678266	    -21.59707121	     -0.00414306	     54.75100450	     47.39137085	      0.00000000	      0.00000000
     26.83150000	     -2.79248258	     -3.59138877	     -1.52854277	      0.77008813	      0.91070074	      0.30106909	     28.14773682	     -7.16345041	      3.56266875	     63.27158251	     63.27158251	      3.02961768	    -15.01743349	     -0.63303303	     19.73502832	     -2.34429743	     -7.81851163	     35.54296049	     35.54296049	     23.11090083	    -19.00752050	     14.88107737	    -12.58403364	     10.16720032	      2.41594683	     -0.95670011	    -12.84485063	    -14.89587164	     28.66849197	     45.75589025	      0.00000000	      0.00000000	     38.42586776	    -22.96908358	     -0.68458273	     55.49507157	     47.46833449	      0.00000000	      0.00000000
     26.85171429	     -2.95501182	     -3.79217147	     -2.65327793	      0.76833828	      0.91289152	      0.30258050	     28.50818157	     -6.87511844	      3.86609159	     61.56254423	     61.56254423	      4.04315626	    -13.05599654	     -1.45776906	     19.05379662	     -2.82654514	     -8.76037601	     34.51852435	     34.51852435	     22.92297219	    -18.97744946	     15.01562567	    -12.82854134	     10.15553221	      2.79690756	     -4.02807643	    -12.72730431	    -14.83677386	     27.59821322	     45.78078463	      0.00000000	      0.00000000	     39.98130376	    -23.24911623	     -1.86913071	     57.46812334	     47.60272021	      0.00000000	      0.00000000
     26.87192857	     -3.33565311	     -4.09458116	     -3.78274462	      0.76642759	      0.91503371	      0.30466544	     28.81310301	     -6.35238277	      4.09859220	     58.95283516	     58.95283516	      4.53626171	    -11.76811819	     -4.04385344	     18.58958062	     -3.46432169	     -9.70568725	     33.44921542	     33.44921542	     22.39911628	    -18.96799408	     14.45273015	    -12.83641961	     10.28430724	      2.41092222	     -6.98093456	    -12.57377477	    -14.34141572	     28.30848057	     45.73998890	      0.00000000	      0.00000000	     40.46026292	    -23.78155700	     -5.47774992	     60.32632082	     47.90567153	      0.00000000	      0.00000000
     26.89214286	     -3.66910633	     -4.35347037	     -4.92325064	      0.76447542	      0.91752402	      0.30709523	     28.85438572	     -5.93996140	      4.09125658	     55.63194853	     55.63194853	      5.76733793	     -9.72591700	     -4.87438099	     18.01380540	     -4.04885211	    -10.67464931	     32.29715663	     32.29715663	     22.09633730	    -18.91656036	     14.69752535	    -12.86480816	     10.32293160	      2.43400445	     -9.42166017	    -12.40636502	    -14.22787558	     27.62310282	     45.74810514	      0.00000000	      0.00000000	     41.70629665	    -24.51472853	     -6.07623579	     61.52236465	     47.97497182	      0.00000000	      0.00000000
     26.91235714	     -4.19047675	     -4.60755911	     -6.08405572	      0.76238868	      0.91968986	      0.31009660	     28.82574108	     -5.41387986	      4.01755611	     51.46666611	     51.46666611	      6.02554233	     -8.19617040	     -8.28537031	     17.55725341	     -4.66345406	    -11.68011149	     30.99296504	     30.99296504	     21.44230024	    -18.88508951	     14.04832127	    -12.75495688	     10.34349103	      2.40449836	    -12.39646543	    -12.27586221	    -13.40739541	     29.09892391	     45.64743835	      0.00000000	      0.00000000	     42.32914611	    -25.13611060	     -8.04119775	     64.05185107	     48.13677925	      0.00000000	      0.00000000
     26.93257143	     -4.67275026	     -4.84305732	     -7.23057741	      0.76027529	      0.92189099	      0.31341620	     28.55184493	     -4.89587677	      3.72168555	     46.80128150	     46.80128150	      7.06909875	     -5.82200570	     -8.63434203	     17.08824386	     -5.25236567	    -12.61877563	     29.78653079	     29.78653079	     21.11222879	    -18.82185134	     14.30213479	    -12.61872419	     10.32215916	      2.51490004	    -14.48774171	    -12.03315015	    -13.24939078	     28.63654672	     45.64550459	      0.00000000	      0.00000000	     43.49326974	    -25.85272198	     -8.46779913	     65.09128631	     48.18858777	      0.00000000	      0.00000000
     26.95278571	     -5.28241936	     -5.06640223	     -8.34654048	      0.75809435	      0.92371808	      0.31712862	     28.14796688	     -4.28200692	      3.27000344	     41.57490336	     41.57490336	      7.68571668	     -3.50452029	     -8.48814638	     16.78137793	     -5.87045365	    -13.57248580	     28.63945382	     28.63945382	     20.79277586	    -18.75356146	     14.53076075	    -12.33175681	     10.31978990	      2.61143775	    -16.36840033	    -11.74637377	    -13.16770031	     28.36763862	     45.63828760	      0.00000000	      0.00000000	     44.49284846	    -26.52719964	     -8.89290528	     66.08266631	     48.24211600	      0.00000000	      0.00000000
